<svg id="SvgjsSvg1025" width="288" height="288" xmlns="http://www.w3.org/2000/svg" version="1.1" xmlns:xlink="http://www.w3.org/1999/xlink" xmlns:svgjs="http://svgjs.com/svgjs"><rect id="SvgjsRect1034" width="288" height="288" rx="0" ry="0" fill="#94f3d2" transform="matrix(1,0,0,1,0,0)"></rect><defs id="SvgjsDefs1026"></defs><g id="SvgjsG1027" transform="matrix(0.4652,0,0,0.4652,77.01120650281906,77.01120612030029)"><svg xmlns="http://www.w3.org/2000/svg" width="288" height="288" viewBox="0 0 256 256"><g style="stroke:none;stroke-width:0;stroke-dasharray:none;stroke-linecap:butt;stroke-linejoin:miter;stroke-miterlimit:10;fill:none;fill-rule:nonzero;opacity:1" fill="none" stroke-miterlimit="10" stroke-width="0" transform="translate(1.964 1.964) scale(2.8008)"><path fill="#000000" d="M 80.89 78.772 H 9.11 c -5.023 0 -9.11 -4.087 -9.11 -9.11 V 20.338 c 0 -5.023 4.087 -9.11 9.11 -9.11 h 71.78 c 5.023 0 9.11 4.087 9.11 9.11 v 49.324 C 90 74.686 85.913 78.772 80.89 78.772 z M 9.11 17.228 c -1.715 0 -3.11 1.396 -3.11 3.11 v 49.324 c 0 1.715 1.395 3.11 3.11 3.11 h 71.78 c 1.715 0 3.11 -1.396 3.11 -3.11 V 20.338 c 0 -1.715 -1.396 -3.11 -3.11 -3.11 H 9.11 z" class="color000 svgShape"></path><path fill="#000000" d="M 45 55.427 c -5.408 0 -10.599 -2.292 -14.242 -6.288 L 2.493 18.125 l 4.435 -4.042 l 28.265 31.013 c 2.545 2.792 6.028 4.331 9.807 4.331 c 3.779 0 7.262 -1.538 9.808 -4.331 l 28.266 -31.013 l 4.434 4.042 L 59.241 49.138 C 55.599 53.135 50.408 55.427 45 55.427 z" class="color000 svgShape"></path><rect width="38.98" height="6" x="-.96" y="57.16" fill="#000000" rx="0" ry="0" transform="rotate(-45.146 18.528 60.161)" class="color000 svgShape"></rect><rect width="6" height="38.98" x="68.47" y="40.67" fill="#000000" rx="0" ry="0" transform="rotate(-44.85 71.466 60.158)" class="color000 svgShape"></rect></g></svg></g></svg>